<svg data-v-0dd9719b="" version="1.0" xmlns="http://www.w3.org/2000/svg" xmlns:xlink="http://www.w3.org/1999/xlink" width="100%" height="100%" viewBox="0 0 340.000000 250.000000" preserveAspectRatio="xMidYMid meet" color-interpolation-filters="sRGB" style="margin: auto;"> <rect data-v-0dd9719b="" x="0" y="0" width="100%" height="100%" fill="#fff" fill-opacity="1" class="background"></rect> <rect data-v-0dd9719b="" x="0" y="0" width="100%" height="100%" fill="url(#watermark)" fill-opacity="1" class="watermarklayer"></rect> <g data-v-0dd9719b="" fill="#333" class="icon-text-wrapper icon-svg-group iconsvg" transform="translate(45.600006103515625,95.00180053710938)"><g class="iconsvg-imagesvg" transform="translate(0,0)"><g><rect fill="#333" fill-opacity="0" stroke-width="2" x="0" y="0" width="60" height="59.996400215987045" class="image-rect"></rect> <svg x="0" y="0" width="60" height="59.996400215987045" filtersec="colorsb2717577320" class="image-svg-svg primary" style="overflow: visible;"><svg xmlns="http://www.w3.org/2000/svg" viewBox="-0.005915164947509766 -0.0032501220703125 100.00916290283203 100.00305938720703"><path d="M97.79 58.53L87.06 44.81a58.94 58.94 0 0 1-5-7.79L72.32 42l-9.14 27.73 4.92 9.75a60.75 60.75 0 0 1 8.64-3.3l16.78-4.67c6.48-1.81 8.48-7.65 4.27-12.98z" fill="#00d495"></path><path d="M30.27 63.18l-9.76 4.92a58.55 58.55 0 0 1 3.31 8.64l4.67 16.78c1.81 6.52 7.65 8.45 13 4.27l13.7-10.73a58.94 58.94 0 0 1 7.79-5l-4.93-9.75z" fill="#7fe000"></path><path d="M36.82 30.27l-4.93-9.76a57.37 57.37 0 0 1-8.63 3.31L6.48 28.49C0 30.3-2 36.14 2.2 41.47l10.74 13.72a58.94 58.94 0 0 1 5 7.79l9.75-4.93z" fill="#00a2ff"></path><path d="M69.73 36.82l9.75-4.92a60 60 0 0 1-3.3-8.64L71.51 6.48C69.7 0 63.85-2 58.53 2.21L44.81 12.94a58.94 58.94 0 0 1-7.79 5L42 27.68z" fill="#00c0d9"></path></svg></svg> <!----></g></g> <g transform="translate(67,8.433198928833008)"><g data-gra="path-name" fill-rule="" class="tp-name iconsvg-namesvg"><g transform="scale(1)"><g><path d="M26.83-41.68L38.18-2.5 23.75-0.64 22-7.22 15.37-7.22 13.91-0.64-0.93-2.1 10.65-40.86 26.83-41.68ZM16.59-16.12L20.95-16.12 18.74-26.25 16.59-16.12ZM72.67-10.36L72.67-10.36Q72.67-7.95 71.78-6.2 70.89-4.45 69.41-3.23 67.93-2.01 65.99-1.24 64.05-0.47 61.96-0.03 59.86 0.41 57.75 0.55 55.64 0.7 53.81 0.7L53.81 0.7Q52.01 0.7 50.07 0.57 48.14 0.44 46.22 0.12 44.29-0.2 42.43-0.74 40.57-1.28 38.91-2.1L38.91-2.1 38.85-39.58Q40.48-40.25 42.32-40.79 44.15-41.33 46.05-41.69 47.96-42.05 49.85-42.24 51.74-42.43 53.52-42.43L53.52-42.43Q55.59-42.43 57.7-42.17 59.81-41.91 61.76-41.3 63.71-40.69 65.39-39.71 67.08-38.74 68.35-37.31 69.61-35.88 70.33-33.99 71.04-32.1 71.04-29.63L71.04-29.63Q71.04-28 70.57-26.57 70.11-25.14 69.24-24.01 68.36-22.87 67.11-22.07 65.86-21.27 64.29-20.9L64.29-20.9Q66.18-20.4 67.74-19.44 69.29-18.48 70.38-17.11 71.48-15.74 72.07-14.03 72.67-12.31 72.67-10.36ZM57.89-26.95L57.89-26.95Q57.89-27.79 57.54-28.39 57.19-28.99 56.68-29.36 56.17-29.74 55.57-29.92 54.97-30.09 54.51-30.09L54.51-30.09Q53.93-30.09 53.37-29.92 52.82-29.74 52.3-29.51L52.3-29.51 52.12-23.05Q52.79-23.05 53.78-23.17 54.77-23.28 55.69-23.68 56.6-24.07 57.24-24.84 57.89-25.61 57.89-26.95ZM53.75-17.46L53.75-17.46Q52.91-17.46 52.12-17.29L52.12-17.29 52.01-10.65Q52.44-10.56 52.86-10.49 53.29-10.42 53.69-10.42L53.69-10.42Q54.31-10.42 55.03-10.55 55.76-10.68 56.4-11.07 57.04-11.47 57.46-12.14 57.89-12.81 57.89-13.91L57.89-13.91Q57.89-15.02 57.46-15.72 57.04-16.41 56.43-16.81 55.82-17.2 55.09-17.33 54.36-17.46 53.75-17.46ZM74.94-41.97L101.77-41.97Q101.6-39.23 101.45-36.55 101.31-33.88 101.07-31.14L101.07-31.14 88.73-30.5 88.44-26.83 97.12-26.83 96.48-17.81 87.74-17.52 87.45-13.27 94.67-13.27 99.79-13.27Q99.62-10.07 99.43-6.91 99.24-3.75 99.09-0.58L99.09-0.58 74.01 0 74.94-41.97ZM128.6-41.27L142.34-41.73 140.25-2.27 125-0.87 116.85-22 115.57-0.47 102.47-0.47 103.52-41.73 118.07-42.43 128.14-21.48 128.6-41.27ZM169.52-41.68L180.87-2.5 166.44-0.64 164.69-7.22 158.06-7.22 156.6-0.64 141.76-2.1 153.34-40.86 169.52-41.68ZM159.28-16.12L163.64-16.12 161.43-26.25 159.28-16.12Z" transform="translate(0.9300000667572021, 42.43000030517578)"></path></g> <!----> <!----> <!----> <!----> <!----> <!----> <!----></g></g> <!----></g></g><defs v-gra="od"></defs></svg>